<svg xmlns="http://www.w3.org/2000/svg" width="1100" height="610" viewBox="0 0 1100 610" role="img" aria-labelledby="title desc" font-family="ui-monospace, 'Cascadia Code', 'SF Mono', Menlo, Consolas, 'DejaVu Sans Mono', monospace">
<title id="title">Terminal themes</title>
<desc id="desc">Eight dark terminal colour themes shown as mini terminals: Tokyo Night, Dracula, Gruvbox, Nord, Catppuccin, Solarized, Phosphor and Amber CRT.</desc>
<style>
@keyframes blink{0%,49%{opacity:1}50%,100%{opacity:0}}
@keyframes pulse{0%,100%{opacity:.30}50%{opacity:.05}}
@keyframes flow{to{stroke-dashoffset:-18}}
@keyframes bar{0%,100%{opacity:1}50%{opacity:.55}}
.blink{animation:blink 1.1s steps(1) infinite}
.pulse{animation:pulse 2s ease-in-out infinite}
.flow{animation:flow 1s linear infinite}
.breathe{animation:bar 2.4s ease-in-out infinite}
@media (prefers-reduced-motion:reduce){.blink,.pulse,.flow,.breathe{animation:none}}
</style>
<defs>
<linearGradient id="bgt" x1="0" y1="0" x2="1" y2="1"><stop offset="0" stop-color="#1b1c2b"/><stop offset="1" stop-color="#12131b"/></linearGradient>
</defs>
<rect x="0" y="0" width="1100" height="610" rx="22" fill="url(#bgt)" stroke="#3b4261" stroke-width="1"/><text x="32" y="50" font-size="26" fill="#c0caf5" font-weight="800">Terminal themes</text><text x="32" y="76" font-size="14" fill="#565f89">a theme is just ten colours, so adding your own takes one small block</text><rect x="22" y="100" width="252" height="232" rx="14" fill="#1a1b26" stroke="#565f89" stroke-width="1.2"/><circle cx="40" cy="120" r="5" fill="#f7768e"/><circle cx="56" cy="120" r="5" fill="#e0af68"/><circle cx="72" cy="120" r="5" fill="#9ece6a"/><text x="258" y="125" font-size="14" fill="#ff79c6" font-weight="800" text-anchor="end">Tokyo Night</text><line x1="34" y1="138" x2="262" y2="138" stroke="#565f89" stroke-width="1" opacity="0.5"/><circle cx="46" cy="156" r="10" fill="#f7768e"/><circle cx="75" cy="156" r="10" fill="#ff9e64"/><circle cx="104" cy="156" r="10" fill="#e0af68"/><circle cx="133" cy="156" r="10" fill="#9ece6a"/><circle cx="162" cy="156" r="10" fill="#7dcfff"/><circle cx="191" cy="156" r="10" fill="#7aa2f7"/><circle cx="220" cy="156" r="10" fill="#bb9af7"/><circle cx="249" cy="156" r="10" fill="#ff79c6"/><text x="40" y="194" font-size="14" fill="#9ece6a" font-weight="700">$</text><text x="56" y="194" font-size="14" fill="#c0caf5">svc list</text><circle cx="46" cy="216" r="4.6" fill="#9ece6a"/><text x="60" y="220" font-size="13" fill="#c0caf5">rental-agent</text><text x="258" y="220" font-size="13" fill="#9ece6a" text-anchor="end">running</text><circle cx="46" cy="238" r="4.6" fill="#f7768e"/><text x="60" y="242" font-size="13" fill="#c0caf5">chat-bot</text><text x="258" y="242" font-size="13" fill="#f7768e" text-anchor="end">crashed</text><circle cx="46" cy="260" r="4.2" fill="none" stroke="#e0af68" stroke-width="1.6"/><path d="M46 255.8 A4.2 4.2 0 0 1 46 264.2 Z" fill="#e0af68"/><text x="60" y="264" font-size="13" fill="#c0caf5">blog</text><text x="258" y="264" font-size="13" fill="#e0af68" text-anchor="end">starting</text><circle cx="46" cy="282" r="4.2" fill="none" stroke="#565f89" stroke-width="1.6"/><text x="60" y="286" font-size="13" fill="#c0caf5">side-project</text><text x="258" y="286" font-size="13" fill="#565f89" text-anchor="end">stopped</text><path d="M40.0 320.0 C42.8 319.4 51.1 316.9 56.6 316.7 C62.2 316.4 67.7 318.9 73.2 318.3 C78.8 317.8 84.3 313.9 89.8 313.3 C95.4 312.7 100.9 315.2 106.5 314.7 C112.0 314.1 117.5 310.3 123.1 310.0 C128.6 309.7 134.2 313.2 139.7 312.7 C145.2 312.1 150.8 307.2 156.3 306.7 C161.8 306.1 167.4 309.9 172.9 309.3 C178.5 308.8 184.0 303.8 189.5 303.3 C195.1 302.9 200.6 307.2 206.2 306.7 C211.7 306.1 217.2 300.7 222.8 300.0 C228.3 299.3 233.8 303.0 239.4 302.7 C244.9 302.3 253.2 298.8 256.0 298.0 L256 320 L40 320 Z" fill="#7aa2f7" fill-opacity="0.16"/><path d="M40.0 320.0 C42.8 319.4 51.1 316.9 56.6 316.7 C62.2 316.4 67.7 318.9 73.2 318.3 C78.8 317.8 84.3 313.9 89.8 313.3 C95.4 312.7 100.9 315.2 106.5 314.7 C112.0 314.1 117.5 310.3 123.1 310.0 C128.6 309.7 134.2 313.2 139.7 312.7 C145.2 312.1 150.8 307.2 156.3 306.7 C161.8 306.1 167.4 309.9 172.9 309.3 C178.5 308.8 184.0 303.8 189.5 303.3 C195.1 302.9 200.6 307.2 206.2 306.7 C211.7 306.1 217.2 300.7 222.8 300.0 C228.3 299.3 233.8 303.0 239.4 302.7 C244.9 302.3 253.2 298.8 256.0 298.0" fill="none" stroke="#7aa2f7" stroke-width="2" stroke-linecap="round" stroke-linejoin="round"/><rect x="290" y="100" width="252" height="232" rx="14" fill="#282a36" stroke="#6272a4" stroke-width="1.2"/><circle cx="308" cy="120" r="5" fill="#ff5555"/><circle cx="324" cy="120" r="5" fill="#f1fa8c"/><circle cx="340" cy="120" r="5" fill="#50fa7b"/><text x="526" y="125" font-size="14" fill="#ff79c6" font-weight="800" text-anchor="end">Dracula</text><line x1="302" y1="138" x2="530" y2="138" stroke="#6272a4" stroke-width="1" opacity="0.5"/><circle cx="314" cy="156" r="10" fill="#ff5555"/><circle cx="343" cy="156" r="10" fill="#ffb86c"/><circle cx="372" cy="156" r="10" fill="#f1fa8c"/><circle cx="401" cy="156" r="10" fill="#50fa7b"/><circle cx="430" cy="156" r="10" fill="#8be9fd"/><circle cx="459" cy="156" r="10" fill="#6d8ff0"/><circle cx="488" cy="156" r="10" fill="#bd93f9"/><circle cx="517" cy="156" r="10" fill="#ff79c6"/><text x="308" y="194" font-size="14" fill="#50fa7b" font-weight="700">$</text><text x="324" y="194" font-size="14" fill="#f8f8f2">svc list</text><circle cx="314" cy="216" r="4.6" fill="#50fa7b"/><text x="328" y="220" font-size="13" fill="#f8f8f2">rental-agent</text><text x="526" y="220" font-size="13" fill="#50fa7b" text-anchor="end">running</text><circle cx="314" cy="238" r="4.6" fill="#ff5555"/><text x="328" y="242" font-size="13" fill="#f8f8f2">chat-bot</text><text x="526" y="242" font-size="13" fill="#ff5555" text-anchor="end">crashed</text><circle cx="314" cy="260" r="4.2" fill="none" stroke="#f1fa8c" stroke-width="1.6"/><path d="M314 255.8 A4.2 4.2 0 0 1 314 264.2 Z" fill="#f1fa8c"/><text x="328" y="264" font-size="13" fill="#f8f8f2">blog</text><text x="526" y="264" font-size="13" fill="#f1fa8c" text-anchor="end">starting</text><circle cx="314" cy="282" r="4.2" fill="none" stroke="#6272a4" stroke-width="1.6"/><text x="328" y="286" font-size="13" fill="#f8f8f2">side-project</text><text x="526" y="286" font-size="13" fill="#6272a4" text-anchor="end">stopped</text><path d="M308.0 320.0 C310.8 319.4 319.1 316.9 324.6 316.7 C330.2 316.4 335.7 318.9 341.2 318.3 C346.8 317.8 352.3 313.9 357.8 313.3 C363.4 312.7 368.9 315.2 374.5 314.7 C380.0 314.1 385.5 310.3 391.1 310.0 C396.6 309.7 402.2 313.2 407.7 312.7 C413.2 312.1 418.8 307.2 424.3 306.7 C429.8 306.1 435.4 309.9 440.9 309.3 C446.5 308.8 452.0 303.8 457.5 303.3 C463.1 302.9 468.6 307.2 474.2 306.7 C479.7 306.1 485.2 300.7 490.8 300.0 C496.3 299.3 501.8 303.0 507.4 302.7 C512.9 302.3 521.2 298.8 524.0 298.0 L524 320 L308 320 Z" fill="#6d8ff0" fill-opacity="0.16"/><path d="M308.0 320.0 C310.8 319.4 319.1 316.9 324.6 316.7 C330.2 316.4 335.7 318.9 341.2 318.3 C346.8 317.8 352.3 313.9 357.8 313.3 C363.4 312.7 368.9 315.2 374.5 314.7 C380.0 314.1 385.5 310.3 391.1 310.0 C396.6 309.7 402.2 313.2 407.7 312.7 C413.2 312.1 418.8 307.2 424.3 306.7 C429.8 306.1 435.4 309.9 440.9 309.3 C446.5 308.8 452.0 303.8 457.5 303.3 C463.1 302.9 468.6 307.2 474.2 306.7 C479.7 306.1 485.2 300.7 490.8 300.0 C496.3 299.3 501.8 303.0 507.4 302.7 C512.9 302.3 521.2 298.8 524.0 298.0" fill="none" stroke="#6d8ff0" stroke-width="2" stroke-linecap="round" stroke-linejoin="round"/><rect x="558" y="100" width="252" height="232" rx="14" fill="#282828" stroke="#928374" stroke-width="1.2"/><circle cx="576" cy="120" r="5" fill="#fb4934"/><circle cx="592" cy="120" r="5" fill="#fabd2f"/><circle cx="608" cy="120" r="5" fill="#b8bb26"/><text x="794" y="125" font-size="14" fill="#e07a9b" font-weight="800" text-anchor="end">Gruvbox</text><line x1="570" y1="138" x2="798" y2="138" stroke="#928374" stroke-width="1" opacity="0.5"/><circle cx="582" cy="156" r="10" fill="#fb4934"/><circle cx="611" cy="156" r="10" fill="#fe8019"/><circle cx="640" cy="156" r="10" fill="#fabd2f"/><circle cx="669" cy="156" r="10" fill="#b8bb26"/><circle cx="698" cy="156" r="10" fill="#8ec07c"/><circle cx="727" cy="156" r="10" fill="#83a598"/><circle cx="756" cy="156" r="10" fill="#d3869b"/><circle cx="785" cy="156" r="10" fill="#e07a9b"/><text x="576" y="194" font-size="14" fill="#b8bb26" font-weight="700">$</text><text x="592" y="194" font-size="14" fill="#ebdbb2">svc list</text><circle cx="582" cy="216" r="4.6" fill="#b8bb26"/><text x="596" y="220" font-size="13" fill="#ebdbb2">rental-agent</text><text x="794" y="220" font-size="13" fill="#b8bb26" text-anchor="end">running</text><circle cx="582" cy="238" r="4.6" fill="#fb4934"/><text x="596" y="242" font-size="13" fill="#ebdbb2">chat-bot</text><text x="794" y="242" font-size="13" fill="#fb4934" text-anchor="end">crashed</text><circle cx="582" cy="260" r="4.2" fill="none" stroke="#fabd2f" stroke-width="1.6"/><path d="M582 255.8 A4.2 4.2 0 0 1 582 264.2 Z" fill="#fabd2f"/><text x="596" y="264" font-size="13" fill="#ebdbb2">blog</text><text x="794" y="264" font-size="13" fill="#fabd2f" text-anchor="end">starting</text><circle cx="582" cy="282" r="4.2" fill="none" stroke="#928374" stroke-width="1.6"/><text x="596" y="286" font-size="13" fill="#ebdbb2">side-project</text><text x="794" y="286" font-size="13" fill="#928374" text-anchor="end">stopped</text><path d="M576.0 320.0 C578.8 319.4 587.1 316.9 592.6 316.7 C598.2 316.4 603.7 318.9 609.2 318.3 C614.8 317.8 620.3 313.9 625.8 313.3 C631.4 312.7 636.9 315.2 642.5 314.7 C648.0 314.1 653.5 310.3 659.1 310.0 C664.6 309.7 670.2 313.2 675.7 312.7 C681.2 312.1 686.8 307.2 692.3 306.7 C697.8 306.1 703.4 309.9 708.9 309.3 C714.5 308.8 720.0 303.8 725.5 303.3 C731.1 302.9 736.6 307.2 742.2 306.7 C747.7 306.1 753.2 300.7 758.8 300.0 C764.3 299.3 769.8 303.0 775.4 302.7 C780.9 302.3 789.2 298.8 792.0 298.0 L792 320 L576 320 Z" fill="#83a598" fill-opacity="0.16"/><path d="M576.0 320.0 C578.8 319.4 587.1 316.9 592.6 316.7 C598.2 316.4 603.7 318.9 609.2 318.3 C614.8 317.8 620.3 313.9 625.8 313.3 C631.4 312.7 636.9 315.2 642.5 314.7 C648.0 314.1 653.5 310.3 659.1 310.0 C664.6 309.7 670.2 313.2 675.7 312.7 C681.2 312.1 686.8 307.2 692.3 306.7 C697.8 306.1 703.4 309.9 708.9 309.3 C714.5 308.8 720.0 303.8 725.5 303.3 C731.1 302.9 736.6 307.2 742.2 306.7 C747.7 306.1 753.2 300.7 758.8 300.0 C764.3 299.3 769.8 303.0 775.4 302.7 C780.9 302.3 789.2 298.8 792.0 298.0" fill="none" stroke="#83a598" stroke-width="2" stroke-linecap="round" stroke-linejoin="round"/><rect x="826" y="100" width="252" height="232" rx="14" fill="#2e3440" stroke="#616e88" stroke-width="1.2"/><circle cx="844" cy="120" r="5" fill="#bf616a"/><circle cx="860" cy="120" r="5" fill="#ebcb8b"/><circle cx="876" cy="120" r="5" fill="#a3be8c"/><text x="1062" y="125" font-size="14" fill="#c58fb2" font-weight="800" text-anchor="end">Nord</text><line x1="838" y1="138" x2="1066" y2="138" stroke="#616e88" stroke-width="1" opacity="0.5"/><circle cx="850" cy="156" r="10" fill="#bf616a"/><circle cx="879" cy="156" r="10" fill="#d08770"/><circle cx="908" cy="156" r="10" fill="#ebcb8b"/><circle cx="937" cy="156" r="10" fill="#a3be8c"/><circle cx="966" cy="156" r="10" fill="#88c0d0"/><circle cx="995" cy="156" r="10" fill="#81a1c1"/><circle cx="1024" cy="156" r="10" fill="#b48ead"/><circle cx="1053" cy="156" r="10" fill="#c58fb2"/><text x="844" y="194" font-size="14" fill="#a3be8c" font-weight="700">$</text><text x="860" y="194" font-size="14" fill="#d8dee9">svc list</text><circle cx="850" cy="216" r="4.6" fill="#a3be8c"/><text x="864" y="220" font-size="13" fill="#d8dee9">rental-agent</text><text x="1062" y="220" font-size="13" fill="#a3be8c" text-anchor="end">running</text><circle cx="850" cy="238" r="4.6" fill="#bf616a"/><text x="864" y="242" font-size="13" fill="#d8dee9">chat-bot</text><text x="1062" y="242" font-size="13" fill="#bf616a" text-anchor="end">crashed</text><circle cx="850" cy="260" r="4.2" fill="none" stroke="#ebcb8b" stroke-width="1.6"/><path d="M850 255.8 A4.2 4.2 0 0 1 850 264.2 Z" fill="#ebcb8b"/><text x="864" y="264" font-size="13" fill="#d8dee9">blog</text><text x="1062" y="264" font-size="13" fill="#ebcb8b" text-anchor="end">starting</text><circle cx="850" cy="282" r="4.2" fill="none" stroke="#616e88" stroke-width="1.6"/><text x="864" y="286" font-size="13" fill="#d8dee9">side-project</text><text x="1062" y="286" font-size="13" fill="#616e88" text-anchor="end">stopped</text><path d="M844.0 320.0 C846.8 319.4 855.1 316.9 860.6 316.7 C866.2 316.4 871.7 318.9 877.2 318.3 C882.8 317.8 888.3 313.9 893.8 313.3 C899.4 312.7 904.9 315.2 910.5 314.7 C916.0 314.1 921.5 310.3 927.1 310.0 C932.6 309.7 938.2 313.2 943.7 312.7 C949.2 312.1 954.8 307.2 960.3 306.7 C965.8 306.1 971.4 309.9 976.9 309.3 C982.5 308.8 988.0 303.8 993.5 303.3 C999.1 302.9 1004.6 307.2 1010.2 306.7 C1015.7 306.1 1021.2 300.7 1026.8 300.0 C1032.3 299.3 1037.8 303.0 1043.4 302.7 C1048.9 302.3 1057.2 298.8 1060.0 298.0 L1060 320 L844 320 Z" fill="#81a1c1" fill-opacity="0.16"/><path d="M844.0 320.0 C846.8 319.4 855.1 316.9 860.6 316.7 C866.2 316.4 871.7 318.9 877.2 318.3 C882.8 317.8 888.3 313.9 893.8 313.3 C899.4 312.7 904.9 315.2 910.5 314.7 C916.0 314.1 921.5 310.3 927.1 310.0 C932.6 309.7 938.2 313.2 943.7 312.7 C949.2 312.1 954.8 307.2 960.3 306.7 C965.8 306.1 971.4 309.9 976.9 309.3 C982.5 308.8 988.0 303.8 993.5 303.3 C999.1 302.9 1004.6 307.2 1010.2 306.7 C1015.7 306.1 1021.2 300.7 1026.8 300.0 C1032.3 299.3 1037.8 303.0 1043.4 302.7 C1048.9 302.3 1057.2 298.8 1060.0 298.0" fill="none" stroke="#81a1c1" stroke-width="2" stroke-linecap="round" stroke-linejoin="round"/><rect x="22" y="350" width="252" height="232" rx="14" fill="#1e1e2e" stroke="#6c7086" stroke-width="1.2"/><circle cx="40" cy="370" r="5" fill="#f38ba8"/><circle cx="56" cy="370" r="5" fill="#f9e2af"/><circle cx="72" cy="370" r="5" fill="#a6e3a1"/><text x="258" y="375" font-size="14" fill="#f5c2e7" font-weight="800" text-anchor="end">Catppuccin</text><line x1="34" y1="388" x2="262" y2="388" stroke="#6c7086" stroke-width="1" opacity="0.5"/><circle cx="46" cy="406" r="10" fill="#f38ba8"/><circle cx="75" cy="406" r="10" fill="#fab387"/><circle cx="104" cy="406" r="10" fill="#f9e2af"/><circle cx="133" cy="406" r="10" fill="#a6e3a1"/><circle cx="162" cy="406" r="10" fill="#94e2d5"/><circle cx="191" cy="406" r="10" fill="#89b4fa"/><circle cx="220" cy="406" r="10" fill="#cba6f7"/><circle cx="249" cy="406" r="10" fill="#f5c2e7"/><text x="40" y="444" font-size="14" fill="#a6e3a1" font-weight="700">$</text><text x="56" y="444" font-size="14" fill="#cdd6f4">svc list</text><circle cx="46" cy="466" r="4.6" fill="#a6e3a1"/><text x="60" y="470" font-size="13" fill="#cdd6f4">rental-agent</text><text x="258" y="470" font-size="13" fill="#a6e3a1" text-anchor="end">running</text><circle cx="46" cy="488" r="4.6" fill="#f38ba8"/><text x="60" y="492" font-size="13" fill="#cdd6f4">chat-bot</text><text x="258" y="492" font-size="13" fill="#f38ba8" text-anchor="end">crashed</text><circle cx="46" cy="510" r="4.2" fill="none" stroke="#f9e2af" stroke-width="1.6"/><path d="M46 505.8 A4.2 4.2 0 0 1 46 514.2 Z" fill="#f9e2af"/><text x="60" y="514" font-size="13" fill="#cdd6f4">blog</text><text x="258" y="514" font-size="13" fill="#f9e2af" text-anchor="end">starting</text><circle cx="46" cy="532" r="4.2" fill="none" stroke="#6c7086" stroke-width="1.6"/><text x="60" y="536" font-size="13" fill="#cdd6f4">side-project</text><text x="258" y="536" font-size="13" fill="#6c7086" text-anchor="end">stopped</text><path d="M40.0 570.0 C42.8 569.4 51.1 566.9 56.6 566.7 C62.2 566.4 67.7 568.9 73.2 568.3 C78.8 567.8 84.3 563.9 89.8 563.3 C95.4 562.7 100.9 565.2 106.5 564.7 C112.0 564.1 117.5 560.3 123.1 560.0 C128.6 559.7 134.2 563.2 139.7 562.7 C145.2 562.1 150.8 557.2 156.3 556.7 C161.8 556.1 167.4 559.9 172.9 559.3 C178.5 558.8 184.0 553.8 189.5 553.3 C195.1 552.9 200.6 557.2 206.2 556.7 C211.7 556.1 217.2 550.7 222.8 550.0 C228.3 549.3 233.8 553.0 239.4 552.7 C244.9 552.3 253.2 548.8 256.0 548.0 L256 570 L40 570 Z" fill="#89b4fa" fill-opacity="0.16"/><path d="M40.0 570.0 C42.8 569.4 51.1 566.9 56.6 566.7 C62.2 566.4 67.7 568.9 73.2 568.3 C78.8 567.8 84.3 563.9 89.8 563.3 C95.4 562.7 100.9 565.2 106.5 564.7 C112.0 564.1 117.5 560.3 123.1 560.0 C128.6 559.7 134.2 563.2 139.7 562.7 C145.2 562.1 150.8 557.2 156.3 556.7 C161.8 556.1 167.4 559.9 172.9 559.3 C178.5 558.8 184.0 553.8 189.5 553.3 C195.1 552.9 200.6 557.2 206.2 556.7 C211.7 556.1 217.2 550.7 222.8 550.0 C228.3 549.3 233.8 553.0 239.4 552.7 C244.9 552.3 253.2 548.8 256.0 548.0" fill="none" stroke="#89b4fa" stroke-width="2" stroke-linecap="round" stroke-linejoin="round"/><rect x="290" y="350" width="252" height="232" rx="14" fill="#002b36" stroke="#586e75" stroke-width="1.2"/><circle cx="308" cy="370" r="5" fill="#dc322f"/><circle cx="324" cy="370" r="5" fill="#b58900"/><circle cx="340" cy="370" r="5" fill="#859900"/><text x="526" y="375" font-size="14" fill="#d33682" font-weight="800" text-anchor="end">Solarized</text><line x1="302" y1="388" x2="530" y2="388" stroke="#586e75" stroke-width="1" opacity="0.5"/><circle cx="314" cy="406" r="10" fill="#dc322f"/><circle cx="343" cy="406" r="10" fill="#cb4b16"/><circle cx="372" cy="406" r="10" fill="#b58900"/><circle cx="401" cy="406" r="10" fill="#859900"/><circle cx="430" cy="406" r="10" fill="#2aa198"/><circle cx="459" cy="406" r="10" fill="#268bd2"/><circle cx="488" cy="406" r="10" fill="#6c71c4"/><circle cx="517" cy="406" r="10" fill="#d33682"/><text x="308" y="444" font-size="14" fill="#859900" font-weight="700">$</text><text x="324" y="444" font-size="14" fill="#93a1a1">svc list</text><circle cx="314" cy="466" r="4.6" fill="#859900"/><text x="328" y="470" font-size="13" fill="#93a1a1">rental-agent</text><text x="526" y="470" font-size="13" fill="#859900" text-anchor="end">running</text><circle cx="314" cy="488" r="4.6" fill="#dc322f"/><text x="328" y="492" font-size="13" fill="#93a1a1">chat-bot</text><text x="526" y="492" font-size="13" fill="#dc322f" text-anchor="end">crashed</text><circle cx="314" cy="510" r="4.2" fill="none" stroke="#b58900" stroke-width="1.6"/><path d="M314 505.8 A4.2 4.2 0 0 1 314 514.2 Z" fill="#b58900"/><text x="328" y="514" font-size="13" fill="#93a1a1">blog</text><text x="526" y="514" font-size="13" fill="#b58900" text-anchor="end">starting</text><circle cx="314" cy="532" r="4.2" fill="none" stroke="#586e75" stroke-width="1.6"/><text x="328" y="536" font-size="13" fill="#93a1a1">side-project</text><text x="526" y="536" font-size="13" fill="#586e75" text-anchor="end">stopped</text><path d="M308.0 570.0 C310.8 569.4 319.1 566.9 324.6 566.7 C330.2 566.4 335.7 568.9 341.2 568.3 C346.8 567.8 352.3 563.9 357.8 563.3 C363.4 562.7 368.9 565.2 374.5 564.7 C380.0 564.1 385.5 560.3 391.1 560.0 C396.6 559.7 402.2 563.2 407.7 562.7 C413.2 562.1 418.8 557.2 424.3 556.7 C429.8 556.1 435.4 559.9 440.9 559.3 C446.5 558.8 452.0 553.8 457.5 553.3 C463.1 552.9 468.6 557.2 474.2 556.7 C479.7 556.1 485.2 550.7 490.8 550.0 C496.3 549.3 501.8 553.0 507.4 552.7 C512.9 552.3 521.2 548.8 524.0 548.0 L524 570 L308 570 Z" fill="#268bd2" fill-opacity="0.16"/><path d="M308.0 570.0 C310.8 569.4 319.1 566.9 324.6 566.7 C330.2 566.4 335.7 568.9 341.2 568.3 C346.8 567.8 352.3 563.9 357.8 563.3 C363.4 562.7 368.9 565.2 374.5 564.7 C380.0 564.1 385.5 560.3 391.1 560.0 C396.6 559.7 402.2 563.2 407.7 562.7 C413.2 562.1 418.8 557.2 424.3 556.7 C429.8 556.1 435.4 559.9 440.9 559.3 C446.5 558.8 452.0 553.8 457.5 553.3 C463.1 552.9 468.6 557.2 474.2 556.7 C479.7 556.1 485.2 550.7 490.8 550.0 C496.3 549.3 501.8 553.0 507.4 552.7 C512.9 552.3 521.2 548.8 524.0 548.0" fill="none" stroke="#268bd2" stroke-width="2" stroke-linecap="round" stroke-linejoin="round"/><rect x="558" y="350" width="252" height="232" rx="14" fill="#08110a" stroke="#3f7a4d" stroke-width="1.2"/><circle cx="576" cy="370" r="5" fill="#ff5f56"/><circle cx="592" cy="370" r="5" fill="#e6ff6b"/><circle cx="608" cy="370" r="5" fill="#39ff6e"/><text x="794" y="375" font-size="14" fill="#ff7ad9" font-weight="800" text-anchor="end">Phosphor</text><line x1="570" y1="388" x2="798" y2="388" stroke="#3f7a4d" stroke-width="1" opacity="0.5"/><circle cx="582" cy="406" r="10" fill="#ff5f56"/><circle cx="611" cy="406" r="10" fill="#ffae42"/><circle cx="640" cy="406" r="10" fill="#e6ff6b"/><circle cx="669" cy="406" r="10" fill="#39ff6e"/><circle cx="698" cy="406" r="10" fill="#35f0c0"/><circle cx="727" cy="406" r="10" fill="#4cc9f0"/><circle cx="756" cy="406" r="10" fill="#9d8cff"/><circle cx="785" cy="406" r="10" fill="#ff7ad9"/><text x="576" y="444" font-size="14" fill="#39ff6e" font-weight="700">$</text><text x="592" y="444" font-size="14" fill="#b6ffc4">svc list</text><circle cx="582" cy="466" r="4.6" fill="#39ff6e"/><text x="596" y="470" font-size="13" fill="#b6ffc4">rental-agent</text><text x="794" y="470" font-size="13" fill="#39ff6e" text-anchor="end">running</text><circle cx="582" cy="488" r="4.6" fill="#ff5f56"/><text x="596" y="492" font-size="13" fill="#b6ffc4">chat-bot</text><text x="794" y="492" font-size="13" fill="#ff5f56" text-anchor="end">crashed</text><circle cx="582" cy="510" r="4.2" fill="none" stroke="#e6ff6b" stroke-width="1.6"/><path d="M582 505.8 A4.2 4.2 0 0 1 582 514.2 Z" fill="#e6ff6b"/><text x="596" y="514" font-size="13" fill="#b6ffc4">blog</text><text x="794" y="514" font-size="13" fill="#e6ff6b" text-anchor="end">starting</text><circle cx="582" cy="532" r="4.2" fill="none" stroke="#3f7a4d" stroke-width="1.6"/><text x="596" y="536" font-size="13" fill="#b6ffc4">side-project</text><text x="794" y="536" font-size="13" fill="#3f7a4d" text-anchor="end">stopped</text><path d="M576.0 570.0 C578.8 569.4 587.1 566.9 592.6 566.7 C598.2 566.4 603.7 568.9 609.2 568.3 C614.8 567.8 620.3 563.9 625.8 563.3 C631.4 562.7 636.9 565.2 642.5 564.7 C648.0 564.1 653.5 560.3 659.1 560.0 C664.6 559.7 670.2 563.2 675.7 562.7 C681.2 562.1 686.8 557.2 692.3 556.7 C697.8 556.1 703.4 559.9 708.9 559.3 C714.5 558.8 720.0 553.8 725.5 553.3 C731.1 552.9 736.6 557.2 742.2 556.7 C747.7 556.1 753.2 550.7 758.8 550.0 C764.3 549.3 769.8 553.0 775.4 552.7 C780.9 552.3 789.2 548.8 792.0 548.0 L792 570 L576 570 Z" fill="#4cc9f0" fill-opacity="0.16"/><path d="M576.0 570.0 C578.8 569.4 587.1 566.9 592.6 566.7 C598.2 566.4 603.7 568.9 609.2 568.3 C614.8 567.8 620.3 563.9 625.8 563.3 C631.4 562.7 636.9 565.2 642.5 564.7 C648.0 564.1 653.5 560.3 659.1 560.0 C664.6 559.7 670.2 563.2 675.7 562.7 C681.2 562.1 686.8 557.2 692.3 556.7 C697.8 556.1 703.4 559.9 708.9 559.3 C714.5 558.8 720.0 553.8 725.5 553.3 C731.1 552.9 736.6 557.2 742.2 556.7 C747.7 556.1 753.2 550.7 758.8 550.0 C764.3 549.3 769.8 553.0 775.4 552.7 C780.9 552.3 789.2 548.8 792.0 548.0" fill="none" stroke="#4cc9f0" stroke-width="2" stroke-linecap="round" stroke-linejoin="round"/><rect x="826" y="350" width="252" height="232" rx="14" fill="#150f02" stroke="#8a6420" stroke-width="1.2"/><circle cx="844" cy="370" r="5" fill="#ff6b3d"/><circle cx="860" cy="370" r="5" fill="#ffd000"/><circle cx="876" cy="370" r="5" fill="#c8e000"/><text x="1062" y="375" font-size="14" fill="#ff7a90" font-weight="800" text-anchor="end">Amber CRT</text><line x1="838" y1="388" x2="1066" y2="388" stroke="#8a6420" stroke-width="1" opacity="0.5"/><circle cx="850" cy="406" r="10" fill="#ff6b3d"/><circle cx="879" cy="406" r="10" fill="#ff9500"/><circle cx="908" cy="406" r="10" fill="#ffd000"/><circle cx="937" cy="406" r="10" fill="#c8e000"/><circle cx="966" cy="406" r="10" fill="#ffcf8a"/><circle cx="995" cy="406" r="10" fill="#ffb347"/><circle cx="1024" cy="406" r="10" fill="#ff8a5c"/><circle cx="1053" cy="406" r="10" fill="#ff7a90"/><text x="844" y="444" font-size="14" fill="#c8e000" font-weight="700">$</text><text x="860" y="444" font-size="14" fill="#ffd27a">svc list</text><circle cx="850" cy="466" r="4.6" fill="#c8e000"/><text x="864" y="470" font-size="13" fill="#ffd27a">rental-agent</text><text x="1062" y="470" font-size="13" fill="#c8e000" text-anchor="end">running</text><circle cx="850" cy="488" r="4.6" fill="#ff6b3d"/><text x="864" y="492" font-size="13" fill="#ffd27a">chat-bot</text><text x="1062" y="492" font-size="13" fill="#ff6b3d" text-anchor="end">crashed</text><circle cx="850" cy="510" r="4.2" fill="none" stroke="#ffd000" stroke-width="1.6"/><path d="M850 505.8 A4.2 4.2 0 0 1 850 514.2 Z" fill="#ffd000"/><text x="864" y="514" font-size="13" fill="#ffd27a">blog</text><text x="1062" y="514" font-size="13" fill="#ffd000" text-anchor="end">starting</text><circle cx="850" cy="532" r="4.2" fill="none" stroke="#8a6420" stroke-width="1.6"/><text x="864" y="536" font-size="13" fill="#ffd27a">side-project</text><text x="1062" y="536" font-size="13" fill="#8a6420" text-anchor="end">stopped</text><path d="M844.0 570.0 C846.8 569.4 855.1 566.9 860.6 566.7 C866.2 566.4 871.7 568.9 877.2 568.3 C882.8 567.8 888.3 563.9 893.8 563.3 C899.4 562.7 904.9 565.2 910.5 564.7 C916.0 564.1 921.5 560.3 927.1 560.0 C932.6 559.7 938.2 563.2 943.7 562.7 C949.2 562.1 954.8 557.2 960.3 556.7 C965.8 556.1 971.4 559.9 976.9 559.3 C982.5 558.8 988.0 553.8 993.5 553.3 C999.1 552.9 1004.6 557.2 1010.2 556.7 C1015.7 556.1 1021.2 550.7 1026.8 550.0 C1032.3 549.3 1037.8 553.0 1043.4 552.7 C1048.9 552.3 1057.2 548.8 1060.0 548.0 L1060 570 L844 570 Z" fill="#ffb347" fill-opacity="0.16"/><path d="M844.0 570.0 C846.8 569.4 855.1 566.9 860.6 566.7 C866.2 566.4 871.7 568.9 877.2 568.3 C882.8 567.8 888.3 563.9 893.8 563.3 C899.4 562.7 904.9 565.2 910.5 564.7 C916.0 564.1 921.5 560.3 927.1 560.0 C932.6 559.7 938.2 563.2 943.7 562.7 C949.2 562.1 954.8 557.2 960.3 556.7 C965.8 556.1 971.4 559.9 976.9 559.3 C982.5 558.8 988.0 553.8 993.5 553.3 C999.1 552.9 1004.6 557.2 1010.2 556.7 C1015.7 556.1 1021.2 550.7 1026.8 550.0 C1032.3 549.3 1037.8 553.0 1043.4 552.7 C1048.9 552.3 1057.2 548.8 1060.0 548.0" fill="none" stroke="#ffb347" stroke-width="2" stroke-linecap="round" stroke-linejoin="round"/>
</svg>
